Coordinates
version=1
nRows=10
nColumns=63
inDegrees=yes

Units are S.I. units (second, meters, Newtons, ...)
If the header above contains a line with 'inDegrees', this indicates whether rotational values are in degrees (yes) or radians (no).

endheader
time	pelvis_tilt	pelvis_list	pelvis_rotation	pelvis_tx	pelvis_ty	pelvis_tz	hip_flexion_r	hip_adduction_r	hip_rotation_r	knee_angle_r	knee_angle_r_beta	ankle_angle_r	subtalar_angle_r	mtp_angle_r	hip_flexion_l	hip_adduction_l	hip_rotation_l	knee_angle_l	knee_angle_l_beta	ankle_angle_l	subtalar_angle_l	mtp_angle_l	L5_S1_Flex_Ext	L5_S1_Lat_Bending	L5_S1_axial_rotation	L4_L5_Flex_Ext	L4_L5_Lat_Bending	L4_L5_axial_rotation	L3_L4_Flex_Ext	L3_L4_Lat_Bending	L3_L4_axial_rotation	L2_L3_Flex_Ext	L2_L3_Lat_Bending	L2_L3_axial_rotation	L1_L2_Flex_Ext	L1_L2_Lat_Bending	L1_L2_axial_rotation	L1_T12_Flex_Ext	L1_T12_Lat_Bending	L1_T12_axial_rotation	Abs_r3	Abs_r2	Abs_r1	Abs_t1	Abs_t2	neck_flexion	neck_bending	neck_rotation	arm_flex_r	arm_add_r	arm_rot_r	elbow_flex_r	pro_sup_r	wrist_flex_r	wrist_dev_r	arm_flex_l	arm_add_l	arm_rot_l	elbow_flex_l	pro_sup_l	wrist_flex_l	wrist_dev_l
      4.90000000	      5.36275582	     -1.28084397	    177.66009156	      2.45751725	      0.88789089	      0.58162810	     15.63803044	     -1.38536132	     -8.25868711	     24.27995298	      0.42376512	     21.31090524	     -1.24171270	      0.00000000	     10.02377445	      2.68028029	      0.71854501	     14.45755934	      0.25233201	     14.31914530	    -18.62192029	      0.00000000	      0.00462866	     -0.26378352	     -1.03964851	      0.00859589	     -0.35083208	     -1.10462654	      0.00760443	     -0.64136324	     -1.10462654	      0.00529010	     -0.64136324	     -0.90969244	      0.00429818	     -0.53790735	     -0.84471441	      0.00264482	     -0.40860067	     -0.77973638	      0.03306209	     -2.98397189	     -5.78221309	      0.00000000	      0.00000000	      0.00000000	      0.00000000	      0.00000000	     -5.04217636	     -3.08987346	     -2.36477411	     25.10746610	     53.19968968	      0.00000000	      5.00000014	    -11.19213396	     -9.04487682	     10.99366554	     22.95570722	     57.17181053	      0.00000000	      5.00000014
      4.93333333	      5.18991852	     -1.65056827	    177.58159377	      2.45789681	      0.88807520	      0.58170634	     15.70395100	     -1.89838868	     -8.64248718	     24.72880894	      0.43159914	     21.55875282	     -0.74777781	      0.00000000	      9.64863849	      3.12144649	      0.53508853	     13.90828707	      0.24274540	     14.05382774	    -18.60625621	      0.00000000	      0.00328992	     -0.29265134	     -0.92449671	      0.00610970	     -0.38922628	     -0.98227775	      0.00540500	     -0.71155246	     -0.98227775	      0.00376004	     -0.71155246	     -0.80893462	      0.00305502	     -0.59677461	     -0.75115357	      0.00187986	     -0.45331692	     -0.69337253	      0.02349954	     -3.31053047	     -5.14177333	      0.00000000	      0.00000000	      0.00000000	      0.00000000	      0.00000000	     -5.42845623	     -2.11032889	     -6.72520969	     25.55193859	     51.89711921	      0.00000000	      5.00000014	    -10.20989359	     -9.84760671	     15.71872000	     22.04940063	     58.69813117	      0.00000000	      5.00000014
      4.96666667	      5.13680376	     -1.63539094	    177.55862595	      2.45819227	      0.88816346	      0.58213513	     15.64955020	     -1.89924168	     -8.55908798	     24.65843652	      0.43037091	     21.40435570	     -0.89285550	      0.00000000	      9.58572103	      3.16962167	      0.36719198	     13.82483318	      0.24128886	     13.95193511	    -18.57887910	      0.00000000	      0.00308725	     -0.28532901	     -0.88226538	      0.00573332	     -0.37948758	     -0.93740696	      0.00507204	     -0.69374894	     -0.93740696	      0.00352841	     -0.69374894	     -0.77198221	      0.00286682	     -0.58184291	     -0.71684062	      0.00176405	     -0.44197463	     -0.66169903	      0.02205189	     -3.22769878	     -4.90689535	      0.00000000	      0.00000000	      0.00000000	      0.00000000	      0.00000000	     -5.41023931	     -2.06205127	     -6.86431556	     25.44566685	     51.48137590	      0.00000000	      5.00000014	     -9.96898596	     -9.75331342	     15.77658394	     21.75164003	     57.98773346	      0.00000000	      5.00000014
      5.00000000	      5.15875232	     -1.58139903	    177.37365600	      2.45816722	      0.88801612	      0.58247344	     15.79668622	     -1.55797681	     -6.85740642	     24.75415379	      0.43204149	     20.93369766	     -3.00824593	      0.00000000	      9.32256263	      3.18807139	      0.60783144	     13.27574292	      0.23170542	     13.87258118	    -18.65959628	      0.00000000	      0.00325056	     -0.28274991	     -0.85971300	      0.00603662	     -0.37605737	     -0.91344507	      0.00534035	     -0.68747812	     -0.91344507	      0.00371507	     -0.68747812	     -0.75224888	      0.00301847	     -0.57658361	     -0.69851682	      0.00185737	     -0.43797960	     -0.64478475	      0.02321845	     -3.19852348	     -4.78146582	      0.00000000	      0.00000000	      0.00000000	      0.00000000	      0.00000000	     -5.44153285	     -2.08983157	     -6.67101532	     25.61188634	     51.22420413	      0.00000000	      5.00000014	     -9.85377089	     -9.87995543	     17.17817583	     21.55564047	     58.04176149	      0.00000000	      5.00000014
      5.03333333	      5.23567039	     -1.40555022	    177.20749820	      2.45794995	      0.88788016	      0.58312960	     15.87833729	     -1.39847182	     -6.41596709	     24.74382943	      0.43186129	     20.87012149	     -2.99845865	      0.00000000	      9.19291340	      3.08034894	      0.75265870	     12.91117063	      0.22534244	     13.93082680	    -18.67871571	      0.00000000	      0.00323262	     -0.27005828	     -0.87764824	      0.00600329	     -0.35917751	     -0.93250125	      0.00531086	     -0.65661970	     -0.93250125	      0.00369456	     -0.65661970	     -0.76794221	      0.00300181	     -0.55070284	     -0.71308919	      0.00184712	     -0.41832027	     -0.65823618	      0.02309025	     -3.05495325	     -4.88121620	      0.00000000	      0.00000000	      0.00000000	      0.00000000	      0.00000000	     -5.32674537	     -2.17607293	     -6.52520085	     25.56185135	     51.08694786	      0.00000000	      5.00000014	    -10.04281269	     -9.70115608	     16.98802023	     21.51839240	     57.65074068	      0.00000000	      5.00000014
      5.06666667	      5.30491584	     -1.21836641	    177.45815503	      2.45766007	      0.88789294	      0.58395912	     15.79928734	     -1.09367032	     -5.25539668	     24.46684090	      0.42702693	     20.43815168	     -4.45512296	      0.00000000	      9.16612572	      2.99259981	      1.38565248	     12.73231768	      0.22222086	     13.95284522	    -18.73757332	      0.00000000	      0.00305388	     -0.25928768	     -0.97371667	      0.00567136	     -0.34485261	     -1.03457396	      0.00501722	     -0.63043206	     -1.03457396	      0.00349028	     -0.63043206	     -0.85200208	      0.00283584	     -0.52873943	     -0.79114479	      0.00174499	     -0.40163661	     -0.73028750	      0.02181358	     -2.93311408	     -5.41551999	      0.00000000	      0.00000000	      0.00000000	      0.00000000	      0.00000000	     -5.15858506	     -2.55193048	     -4.86420084	     25.34236080	     52.00570935	      0.00000000	      5.00000014	    -10.43039261	     -9.38495755	     15.25624422	     21.67079963	     57.98553310	      0.00000000	      5.00000014
      5.10000000	      5.29441068	     -1.22851113	    177.39665711	      2.45740588	      0.88808871	      0.58407264	     15.71148961	     -0.94845995	     -3.83485018	     24.26920987	      0.42357762	     20.14012007	     -5.53465991	      0.00000000	      9.02277183	      3.02090842	      1.52260442	     12.47986085	      0.21781466	     13.90247179	    -18.74662487	      0.00000000	      0.00302515	     -0.26735766	     -0.98008684	      0.00561801	     -0.35558569	     -1.04134227	      0.00497003	     -0.65005342	     -1.04134227	      0.00345745	     -0.65005342	     -0.85757598	      0.00280916	     -0.54519575	     -0.79632056	      0.00172857	     -0.41413702	     -0.73506513	      0.02160837	     -3.02440337	     -5.45094897	      0.00000000	      0.00000000	      0.00000000	      0.00000000	      0.00000000	     -5.06250748	     -2.77611509	     -3.60030977	     25.10228092	     52.15955461	      0.00000000	      5.00000014	    -10.64861051	     -9.25741584	     14.27203781	     21.72357916	     57.90098748	      0.00000000	      5.00000014
      5.13333333	      5.24371813	     -1.30626776	    177.46078563	      2.45714499	      0.88835347	      0.58411055	     15.57454117	     -1.04741427	     -3.17791352	     24.11128517	      0.42082131	     20.13274686	     -5.53294489	      0.00000000	      8.90118076	      3.10440666	      1.70371037	     12.37487324	      0.21598228	     13.81726238	    -18.75071734	      0.00000000	      0.00319281	     -0.27901272	     -0.98557833	      0.00592937	     -0.37108692	     -1.04717697	      0.00524547	     -0.67839153	     -1.04717697	      0.00364907	     -0.67839153	     -0.86238104	      0.00296485	     -0.56896274	     -0.80078239	      0.00182437	     -0.43219070	     -0.73918375	      0.02280595	     -3.15624768	     -5.48149098	      0.00000000	      0.00000000	      0.00000000	      0.00000000	      0.00000000	     -5.06748101	     -2.84354222	     -3.15452585	     24.94827760	     52.84062784	      0.00000000	      5.00000014	    -10.77239067	     -9.14577112	     13.07050408	     21.72350663	     58.67687533	      0.00000000	      5.00000014
      5.16666667	      5.20232055	     -1.30125634	    177.79307636	      2.45684681	      0.88859973	      0.58417458	     15.39880931	     -0.94875062	     -2.24075415	     23.88844232	      0.41693197	     19.82353808	     -6.75972518	      0.00000000	      8.84020595	      3.09931672	      2.23464594	     12.43382223	      0.21701114	     13.70774065	    -18.77749124	      0.00000000	      0.00316504	     -0.28002588	     -1.04085764	      0.00587780	     -0.37243442	     -1.10591125	      0.00519985	     -0.68085492	     -1.10591125	      0.00361733	     -0.68085492	     -0.91075044	      0.00293906	     -0.57102877	     -0.84569684	      0.00180851	     -0.43376008	     -0.78064323	      0.02260759	     -3.16770873	     -5.78893796	      0.00000000	      0.00000000	      0.00000000	      0.00000000	      0.00000000	     -5.08643688	     -2.90861620	     -2.72311160	     24.80939618	     53.63010399	      0.00000000	      5.00000014	    -10.81429337	     -9.27429690	     13.20585088	     21.77821108	     59.85404591	      0.00000000	      5.00000014
      5.20000000	      5.18524628	     -1.32789559	    177.60205789	      2.45653498	      0.88869415	      0.58372731	     15.39277143	     -0.79815630	     -1.31280789	     23.86314134	      0.41649039	     19.60735143	     -7.68023604	      0.00000000	      8.71964211	      3.03604697	      2.12267300	     12.41849551	      0.21674363	     13.60940169	    -18.72839733	      0.00000000	      0.00332685	     -0.28443516	     -1.01865119	      0.00617829	     -0.37829876	     -1.08231689	      0.00546568	     -0.69157565	     -1.08231689	      0.00380226	     -0.69157565	     -0.89131979	      0.00308931	     -0.58002018	     -0.82765409	      0.00190096	     -0.44059006	     -0.76398839	      0.02376335	     -3.21758740	     -5.66543233	      0.00000000	      0.00000000	      0.00000000	      0.00000000	      0.00000000	     -5.08501558	     -2.91349582	     -2.67086910	     24.72733114	     55.32054819	      0.00000000	      5.00000014	    -10.96899466	     -9.35760057	     12.93035536	     22.07672672	     61.64296016	      0.00000000	      5.00000014
